<svg width="141" height="52" viewBox="0 0 141 52" fill="none" xmlns="http://www.w3.org/2000/svg">
<path d="M14.9686 32H16.6406V22.056H20.4726V20.48H11.1366V22.056H14.9686V32ZM25.4839 21.912H27.0839V20.312H25.4839V21.912ZM22.2599 21.912H23.8599V20.312H22.2599V21.912ZM24.2119 32.232C24.8359 32.232 25.3879 32.12 25.8679 31.896C26.3533 31.672 26.7533 31.3627 27.0679 30.968V32H28.5559V23.36H26.8679V27.856C26.8679 28.5387 26.7693 29.0853 26.5719 29.496C26.3746 29.9013 26.1079 30.1947 25.7719 30.376C25.4413 30.5573 25.0759 30.648 24.6759 30.648C24.2173 30.648 23.8439 30.5547 23.5559 30.368C23.2679 30.1813 23.0466 29.936 22.8919 29.632C22.7373 29.328 22.6306 29 22.5719 28.648C22.5186 28.2907 22.4919 27.944 22.4919 27.608V23.36H20.7959V28.16C20.7959 28.4267 20.8199 28.736 20.8679 29.088C20.9159 29.44 21.0066 29.8 21.1399 30.168C21.2733 30.536 21.4653 30.8773 21.7159 31.192C21.9719 31.5013 22.3026 31.752 22.7079 31.944C23.1133 32.136 23.6146 32.232 24.2119 32.232ZM30.7917 32H32.4717V26.6C32.4717 26.0133 32.6317 25.5387 32.9517 25.176C33.277 24.8133 33.7037 24.632 34.2317 24.632C34.765 24.632 35.189 24.8133 35.5037 25.176C35.8237 25.5333 35.9837 26.024 35.9837 26.648L35.9757 32H37.6477L37.6557 26.6C37.6557 25.9493 37.829 25.4587 38.1757 25.128C38.5277 24.7973 38.941 24.632 39.4157 24.632C39.9384 24.632 40.3597 24.808 40.6797 25.16C40.9997 25.512 41.1597 25.9973 41.1597 26.616L41.1517 32H42.8237L42.8317 26.216C42.8317 25.288 42.573 24.544 42.0557 23.984C41.5437 23.424 40.8237 23.144 39.8957 23.144C39.3304 23.144 38.8184 23.2693 38.3597 23.52C37.901 23.7653 37.5384 24.1067 37.2717 24.544C37.0424 24.1067 36.7144 23.7653 36.2877 23.52C35.8664 23.2693 35.357 23.144 34.7597 23.144C34.2424 23.144 33.7677 23.248 33.3357 23.456C32.909 23.6587 32.557 23.936 32.2797 24.288V23.36H30.7917V32ZM49.4371 21.912H51.0371V20.312H49.4371V21.912ZM46.2131 21.912H47.8131V20.312H46.2131V21.912ZM48.1651 32.232C48.7891 32.232 49.3411 32.12 49.8211 31.896C50.3064 31.672 50.7064 31.3627 51.0211 30.968V32H52.5091V23.36H50.8211V27.856C50.8211 28.5387 50.7224 29.0853 50.5251 29.496C50.3277 29.9013 50.0611 30.1947 49.7251 30.376C49.3944 30.5573 49.0291 30.648 48.6291 30.648C48.1704 30.648 47.7971 30.5547 47.5091 30.368C47.2211 30.1813 46.9997 29.936 46.8451 29.632C46.6904 29.328 46.5837 29 46.5251 28.648C46.4717 28.2907 46.4451 27.944 46.4451 27.608V23.36H44.7491V28.16C44.7491 28.4267 44.7731 28.736 44.8211 29.088C44.8691 29.44 44.9597 29.8 45.0931 30.168C45.2264 30.536 45.4184 30.8773 45.6691 31.192C45.9251 31.5013 46.2557 31.752 46.6611 31.944C47.0664 32.136 47.5677 32.232 48.1651 32.232ZM54.7448 32H56.4408V27.504C56.4408 26.8213 56.5395 26.2773 56.7368 25.872C56.9395 25.4613 57.2061 25.1653 57.5368 24.984C57.8675 24.8027 58.2328 24.712 58.6328 24.712C59.0915 24.712 59.4648 24.8053 59.7528 24.992C60.0408 25.1787 60.2621 25.424 60.4168 25.728C60.5715 26.032 60.6755 26.3627 60.7288 26.72C60.7875 27.072 60.8168 27.416 60.8168 27.752V32H62.5128V27.2C62.5128 26.9333 62.4888 26.624 62.4408 26.272C62.3928 25.92 62.3021 25.56 62.1688 25.192C62.0355 24.824 61.8408 24.4853 61.5848 24.176C61.3341 23.8613 61.0061 23.608 60.6008 23.416C60.1955 23.224 59.6941 23.128 59.0968 23.128C58.4728 23.128 57.9181 23.24 57.4328 23.464C56.9528 23.688 56.5555 23.9973 56.2408 24.392V23.36H54.7448V32ZM69.1246 21.912H70.7246V20.312H69.1246V21.912ZM65.9006 21.912H67.5006V20.312H65.9006V21.912ZM67.8526 32.232C68.4766 32.232 69.0286 32.12 69.5086 31.896C69.9939 31.672 70.3939 31.3627 70.7086 30.968V32H72.1966V23.36H70.5086V27.856C70.5086 28.5387 70.4099 29.0853 70.2126 29.496C70.0152 29.9013 69.7486 30.1947 69.4126 30.376C69.0819 30.5573 68.7166 30.648 68.3166 30.648C67.8579 30.648 67.4846 30.5547 67.1966 30.368C66.9086 30.1813 66.6872 29.936 66.5326 29.632C66.3779 29.328 66.2712 29 66.2126 28.648C66.1592 28.2907 66.1326 27.944 66.1326 27.608V23.36H64.4366V28.16C64.4366 28.4267 64.4606 28.736 64.5086 29.088C64.5566 29.44 64.6472 29.8 64.7806 30.168C64.9139 30.536 65.1059 30.8773 65.3566 31.192C65.6126 31.5013 65.9432 31.752 66.3486 31.944C66.7539 32.136 67.2552 32.232 67.8526 32.232ZM82.3554 32.24C83.4754 32.24 84.4248 32.0027 85.2034 31.528C85.9874 31.048 86.5848 30.3893 86.9954 29.552C87.4061 28.7147 87.6114 27.7627 87.6114 26.696C87.6114 26.6533 87.6088 26.5547 87.6034 26.4C87.5981 26.2453 87.5901 26.1173 87.5794 26.016H83.5634V27.36H85.8034C85.6861 28.4267 85.3448 29.2453 84.7794 29.816C84.2141 30.3813 83.4381 30.6587 82.4514 30.648C81.2301 30.6373 80.3101 30.2293 79.6914 29.424C79.0781 28.6187 78.7741 27.5573 78.7794 26.24C78.7848 25.36 78.9208 24.5893 79.1874 23.928C79.4594 23.2613 79.8674 22.744 80.4114 22.376C80.9554 22.008 81.6354 21.8267 82.4514 21.832C83.2461 21.8373 83.9048 22.0453 84.4274 22.456C84.9501 22.8667 85.3261 23.416 85.5554 24.104L87.2514 23.8C86.9581 22.6907 86.4061 21.8213 85.5954 21.192C84.7901 20.5627 83.7101 20.248 82.3554 20.248C81.3048 20.248 80.3768 20.4907 79.5714 20.976C78.7661 21.456 78.1368 22.144 77.6834 23.04C77.2301 23.9307 77.0034 24.9973 77.0034 26.24C77.0034 27.4987 77.2354 28.576 77.6994 29.472C78.1634 30.368 78.7981 31.0533 79.6034 31.528C80.4088 32.0027 81.3261 32.24 82.3554 32.24ZM93.7819 21.912H95.3819V20.312H93.7819V21.912ZM90.5579 21.912H92.1579V20.312H90.5579V21.912ZM92.9579 32.24C93.8166 32.24 94.5633 32.048 95.1979 31.664C95.8326 31.2747 96.3233 30.7387 96.6699 30.056C97.0219 29.368 97.1979 28.5733 97.1979 27.672C97.1979 26.7813 97.0246 25.9947 96.6779 25.312C96.3313 24.624 95.8406 24.088 95.2059 23.704C94.5713 23.3147 93.8219 23.12 92.9579 23.12C92.1099 23.12 91.3686 23.312 90.7339 23.696C90.0993 24.08 89.6059 24.6133 89.2539 25.296C88.9019 25.9787 88.7259 26.7707 88.7259 27.672C88.7259 28.5627 88.8993 29.352 89.2459 30.04C89.5926 30.728 90.0806 31.2667 90.7099 31.656C91.3446 32.0453 92.0939 32.24 92.9579 32.24ZM92.9579 30.664C92.1526 30.664 91.5419 30.3947 91.1259 29.856C90.7099 29.312 90.5019 28.584 90.5019 27.672C90.5019 26.792 90.7019 26.0773 91.1019 25.528C91.5019 24.9733 92.1206 24.696 92.9579 24.696C93.7739 24.696 94.3873 24.9653 94.7979 25.504C95.2139 26.0427 95.4219 26.7653 95.4219 27.672C95.4219 28.5573 95.2166 29.2773 94.8059 29.832C94.4006 30.3867 93.7846 30.664 92.9579 30.664ZM98.9559 32H100.644V27.64C100.644 27.1333 100.724 26.664 100.884 26.232C101.044 25.8 101.327 25.4533 101.732 25.192C102.02 25.0053 102.337 24.896 102.684 24.864C103.031 24.832 103.343 24.8533 103.62 24.928V23.36C103.231 23.2853 102.817 23.288 102.38 23.368C101.948 23.448 101.569 23.608 101.244 23.848C100.924 24.0613 100.657 24.3573 100.444 24.736V23.36H98.9559V32Z" fill="#F84646"/>
<g clip-path="url(#clip0_8_339)">
<path d="M117 26H128" stroke="#F84646" stroke-width="2" stroke-linecap="round" stroke-linejoin="round"/>
<path d="M123.5 21.5L128 26L123.5 30.5" stroke="#F84646" stroke-width="2" stroke-linecap="round" stroke-linejoin="round"/>
</g>
<defs>
<clipPath id="clip0_8_339">
<rect width="16" height="16" fill="white" transform="translate(114.5 18)"/>
</clipPath>
</defs>
</svg>
